<?xml version="1.0" encoding="utf-8"?>
<!-- Generator: Adobe Illustrator 19.2.1, SVG Export Plug-In . SVG Version: 6.00 Build 0)  -->
<svg version="1.1" id="Layer_1" xmlns="http://www.w3.org/2000/svg" xmlns:xlink="http://www.w3.org/1999/xlink" x="0px" y="0px"
	 viewBox="0 0 266 73" style="enable-background:new 0 0 266 73;" xml:space="preserve">
<style type="text/css">
	.st0{fill:#80C242;}
</style>
<g>
	<path class="st0" d="M34.3,1.3C15.5,1.3,0.1,16.7,0.1,35.6c0,18.9,15.4,34.2,34.2,34.2c18.9,0,34.2-15.4,34.2-34.2
		C68.6,16.7,53.2,1.3,34.3,1.3 M34.3,5c16.9,0,30.6,13.7,30.6,30.6c0,16.9-13.7,30.6-30.6,30.6c-16.9,0-30.6-13.7-30.6-30.6
		C3.7,18.7,17.4,5,34.3,5"/>
	<path class="st0" d="M37.5,18.5c0,2.7-1.4,7.2-3.2,7.2c-1.8,0-3.2-4.5-3.2-7.2c0-2.7,1.4-7.2,3.2-7.2
		C36.1,11.3,37.5,15.7,37.5,18.5"/>
	<path class="st0" d="M32.6,27.2c1.3,2.4,2.2,7,0.6,7.8c-1.6,0.8-4.9-2.4-6.2-4.8c-1.3-2.4-2.2-7-0.6-7.8
		C28,21.5,31.4,24.8,32.6,27.2"/>
	<path class="st0" d="M35.9,27c-1.3,2.4-2.1,7-0.6,7.8c1.5,0.8,4.9-2.5,6.2-4.8c1.3-2.4,2.1-7,0.6-7.9C40.5,21.3,37.1,24.6,35.9,27"
		/>
	<path class="st0" d="M31.4,37.1c1.6,2.2,3.1,6.7,1.6,7.7c-1.4,1-5.2-1.8-6.8-4c-1.6-2.2-3.1-6.7-1.7-7.7
		C26,32.1,29.8,34.9,31.4,37.1"/>
	<path class="st0" d="M36.4,48.3c-1.5,2.3-2.8,6.8-1.3,7.8c1.5,1,5.1-2,6.6-4.2c1.5-2.3,2.8-6.8,1.4-7.8
		C41.6,43.1,37.9,46.1,36.4,48.3"/>
	<path class="st0" d="M42.1,40.8c1.6-2.2,3.1-6.7,1.6-7.7c-1.4-1-5.2,1.8-6.8,4c-1.6,2.2-3.1,6.7-1.6,7.7
		C36.7,45.8,40.5,43,42.1,40.8"/>
	<path class="st0" d="M26.6,51.6c-1.5-2.3-2.8-6.8-1.4-7.7c1.5-1,5.1,2,6.6,4.2c1.5,2.2,2.8,6.8,1.4,7.8
		C31.8,56.9,28.1,53.9,26.6,51.6"/>
	<path class="st0" d="M32.8,67V55.5c0-0.8,0.7-1.5,1.5-1.5c0.8,0,1.5,0.7,1.5,1.5V67c0,0.9-0.7,1.5-1.5,1.5
		C33.5,68.5,32.8,67.9,32.8,67"/>
	<g>
		<polygon class="st0" points="83.1,19.9 90.3,19.9 104.2,42.1 104.3,42.1 104.3,19.9 111.1,19.9 111.1,53 103.8,53 90,30.8 
			89.9,30.8 89.9,53 83.1,53 		"/>
		<polygon class="st0" points="116.3,23.6 138.3,23.6 138.3,29 122.7,29 122.7,35.3 137,35.3 137,40.4 122.7,40.4 122.7,47.6 
			138.6,47.6 138.6,53 116.3,53 		"/>
		<path class="st0" d="M155.4,48.3c5.8,0,8-4.9,8-9.8c0-5.1-2.2-10.1-8-10.1c-5.8,0-8,4.9-8,10.1C147.4,43.3,149.6,48.3,155.4,48.3
			 M155.4,22.9c9.1,0,14.5,6.8,14.5,15.5c0,8.5-5.3,15.3-14.5,15.3c-9.1,0-14.5-6.8-14.5-15.3C141,29.7,146.3,22.9,155.4,22.9"/>
		<polygon class="st0" points="173.9,19.9 181.2,19.9 181.2,46.9 197.4,46.9 197.4,53 173.9,53 		"/>
		<rect x="200.2" y="23.6" class="st0" width="6.5" height="29.4"/>
		<polygon class="st0" points="211.6,23.6 232.3,23.6 232.3,29 218.1,29 218.1,35.8 230.4,35.8 230.4,40.9 218.1,40.9 218.1,53 
			211.6,53 		"/>
		<polygon class="st0" points="235.3,23.6 257.3,23.6 257.3,29 241.8,29 241.8,35.3 256,35.3 256,40.4 241.8,40.4 241.8,47.6 
			257.6,47.6 257.6,53 235.3,53 		"/>
		<g>
			<path class="st0" d="M262,25.8h0.6c0.5,0,1,0,1-0.6c0-0.5-0.4-0.6-0.9-0.6H262V25.8z M261.4,24.1h1.5c0.9,0,1.4,0.4,1.4,1.1
				c0,0.7-0.4,1-1,1.1l1.1,1.7h-0.7l-1.1-1.7H262V28h-0.6V24.1z M262.7,28.9c1.5,0,2.7-1.2,2.7-2.9c0-1.6-1.2-2.8-2.7-2.8
				c-1.6,0-2.7,1.2-2.7,2.8C259.9,27.6,261.1,28.9,262.7,28.9 M262.7,22.7c1.8,0,3.3,1.4,3.3,3.3c0,1.9-1.5,3.3-3.3,3.3
				c-1.8,0-3.4-1.4-3.4-3.3C259.3,24.1,260.8,22.7,262.7,22.7"/>
		</g>
	</g>
</g>
</svg>
