<?xml version="1.0" encoding="UTF-8" standalone="no"?>
<svg
   xmlns:dc="http://purl.org/dc/elements/1.1/"
   xmlns:cc="http://creativecommons.org/ns#"
   xmlns:rdf="http://www.w3.org/1999/02/22-rdf-syntax-ns#"
   xmlns:svg="http://www.w3.org/2000/svg"
   xmlns="http://www.w3.org/2000/svg"
   xmlns:sodipodi="http://sodipodi.sourceforge.net/DTD/sodipodi-0.dtd"
   xmlns:inkscape="http://www.inkscape.org/namespaces/inkscape"
   viewBox="0 0 841.88977 186"
   id="svg2"
   height="186"
   width="841.88977"
   version="1.1"
   sodipodi:docname="PAY SABIL.svg"
   inkscape:version="0.92.3 (2405546, 2018-03-11)">
  <sodipodi:namedview
     pagecolor="#ffffff"
     bordercolor="#666666"
     borderopacity="1"
     objecttolerance="10"
     gridtolerance="10"
     guidetolerance="10"
     inkscape:pageopacity="0"
     inkscape:pageshadow="2"
     inkscape:window-width="2880"
     inkscape:window-height="1494"
     id="namedview16"
     showgrid="false"
     units="mm"
     inkscape:measure-start="418.269,299.656"
     inkscape:measure-end="419.161,112.371"
     inkscape:zoom="1.1212869"
     inkscape:cx="110.66591"
     inkscape:cy="424.93445"
     inkscape:window-x="0"
     inkscape:window-y="60"
     inkscape:window-maximized="1"
     inkscape:current-layer="svg2" />
  <metadata
     id="metadata30">
    <rdf:RDF>
      <cc:Work
         rdf:about="">
        <dc:format>image/svg+xml</dc:format>
        <dc:type
           rdf:resource="http://purl.org/dc/dcmitype/StillImage" />
        <dc:title></dc:title>
      </cc:Work>
    </rdf:RDF>
  </metadata>
  <defs
     id="defs28" />
  <g
     id="g834"
     transform="translate(-4.710036,78.338838)">
    <path
       inkscape:connector-curvature="0"
       d="m 273.12503,-10.162403 c 0,7.7364891 -1.96784,14.6105521 -5.90331,20.595158 -3.90934,6.010714 -9.5161,10.647386 -16.76733,13.936125 -7.27802,3.28899 -15.71572,4.93324 -25.36554,4.93324 H 214.68327 V 65.71993 H 180.55641 V -47.523497 h 46.44621 c 15.95802,0 27.62999,3.019204 35.01633,9.084419 7.38565,6.037723 11.10608,15.472522 11.10608,28.276675 z m -36.0947,1.1864791 c 0,-4.6366741 -1.34793,-8.1413691 -4.04356,-10.5129471 -2.66905,-2.372502 -6.63153,-3.558525 -11.83408,-3.558525 h -6.46942 V 4.9066191 h 7.6559 c 9.78495,0 14.69116,-4.63666198 14.69116,-13.882543 z"
       style="fill:#3c2b99;fill-rule:evenodd;stroke-width:2.30967665"
       id="path4" />
    <path
       inkscape:connector-curvature="0"
       d="M 328.41221,65.71993 V 53.40129 h -0.32336 c -5.36468,9.51541 -13.58596,14.2865 -24.63823,14.2865 -7.62909,0 -13.61302,-2.26417 -17.92632,-6.79276 -4.31263,-4.52905 -6.46918,-10.56678 -6.46918,-18.16884 0,-15.87717 9.75793,-25.09602 29.30102,-27.62996 l 20.05607,-2.615018 c 0,-2.6145529 -1.18648,-4.7713329 -3.55827,-6.4694089 -2.37252,-1.671287 -5.55293,-2.533712 -9.54243,-2.533712 -9.05741,0 -18.62732,2.587528 -28.68181,7.7632839 v -21.888573 c 4.36692,-1.88701 9.83947,-3.450891 16.41627,-4.663468 6.60428,-1.212817 12.23805,-1.806627 16.90176,-1.806627 13.74789,0 23.72176,2.938592 29.8946,8.7880841 6.19987,5.876284 9.30037,15.688939 9.30037,29.4363699 V 65.71993 Z M 308.51827,38.22465 c 0,2.21035 0.67351,4.04307 2.07596,5.4723 1.40174,1.40173 3.39637,2.12904 5.9571,2.12904 3.53151,0 6.38858,-1.32019 8.57216,-3.96246 2.18355,-2.61433 3.28872,-5.98461 3.28872,-10.1083 v -3.07349 l -11.37561,1.59045 c -5.68804,0.94397 -8.51833,3.58531 -8.51833,7.95246 z"
       style="fill:#3c2b99;fill-rule:evenodd;stroke-width:2.30967665"
       id="path6" />
    <path
       inkscape:connector-curvature="0"
       d="m 390.00761,103.70166 c -3.15432,0 -6.55072,-0.26954 -10.18984,-0.83566 -3.6389,-0.53907 -6.87382,-1.34791 -9.7041,-2.39928 V 75.12795 c 1.2941,0.99756 3.26173,1.91379 5.87627,2.74943 2.61525,0.83565 5.06767,1.26664 7.38635,1.26664 6.25345,0 10.40486,-2.47991 12.4808,-7.41244 l 2.58753,-6.33501 -33.80351,-80.545329 h 37.19988 l 9.81245,39.005599 c 1.88724,7.27802 2.91111,12.15744 3.07302,14.69116 h 0.32335 c 0.13442,-1.15902 0.37716,-2.45311 0.64672,-3.85486 0.29656,-1.42854 4.39416,-18.033725 12.29255,-49.841899 h 32.69763 L 430.90019,68.01114 c -4.47475,12.75034 -10.00088,21.86178 -16.60541,27.41471 -6.6043,5.52613 -14.71796,8.27581 -24.28717,8.27581 z"
       style="fill:#3c2b99;fill-rule:evenodd;stroke-width:2.30967665"
       id="path8" />
    <path
       inkscape:connector-curvature="0"
       d="m 548.88866,31.45889 c 0,7.52079 -2.02212,14.07055 -6.03844,19.65051 -4.01673,5.57993 -9.6773,9.73134 -16.92854,12.48079 -7.278,2.72287 -16.01228,4.0976 -26.22891,4.0976 -11.86019,0 -22.69674,-1.99465 -32.53618,-5.98392 V 30.65005 c 4.74431,3.47699 9.97388,6.28046 15.71594,8.41022 5.74118,2.12976 11.07907,3.20745 16.03911,3.20745 3.71972,0 6.63061,-0.67372 8.67977,-2.02167 2.04843,-1.34791 3.07302,-3.28874 3.07302,-5.87627 0,-1.83342 -0.51228,-3.47767 -1.53686,-4.85171 -1.02389,-1.40243 -2.58753,-2.69584 -4.66301,-3.90934 -2.07595,-1.21283 -5.93079,-2.8841 -11.56431,-4.987059 -18.2229,-7.00848 -27.3341,-18.3302879 -27.3341,-33.964728 0,-10.943938 4.17819,-19.705 12.48078,-26.255706 8.3294,-6.550021 19.48999,-9.811972 33.47992,-9.811972 3.96248,0 7.60138,0.134428 10.91716,0.458698 3.31554,0.323357 6.30796,0.700303 9.0306,1.185795 2.72288,0.485264 6.52321,1.374712 11.40265,2.695846 v 28.816453 c -9.51541,-5.202777 -18.89639,-7.818025 -28.11546,-7.818025 -3.77401,0 -6.82026,0.701227 -9.13824,2.129756 -2.31869,1.428769 -3.47768,3.369583 -3.47768,5.849491 0,2.372502 0.91649,4.313329 2.80349,5.876502 1.86022,1.5636531 5.76886,3.5582961 11.72644,6.0384321 11.72601,4.74406702 20.02862,9.920049 24.90711,15.5535869 4.87942,5.633754 7.30574,12.31958 7.30574,20.08309 z"
       style="fill:#3c2b99;fill-rule:evenodd;stroke-width:2.30967665"
       id="path10" />
    <path
       inkscape:connector-curvature="0"
       d="M 604.49942,65.71993 V 53.40129 h -0.32335 c -5.3649,9.51541 -13.58621,14.2865 -24.63824,14.2865 -7.62909,0 -13.613,-2.26417 -17.92631,-6.79276 -4.31264,-4.52905 -6.46941,-10.56678 -6.46941,-18.16884 0,-15.87717 9.75813,-25.09602 29.30124,-27.62996 l 20.05607,-2.615018 c 0,-2.6145529 -1.1867,-4.7713329 -3.55851,-6.4694089 -2.37227,-1.671287 -5.55293,-2.533712 -9.5422,-2.533712 -9.05762,0 -18.62753,2.587528 -28.68201,7.7632839 v -21.888573 c 4.36712,-1.88701 9.83943,-3.450891 16.41624,-4.663468 6.60452,-1.212817 12.23829,-1.806627 16.90176,-1.806627 13.74813,0 23.72201,2.938592 29.89482,8.7880841 6.19965,5.876284 9.30015,15.688939 9.30015,29.4363699 V 65.71993 Z M 584.60526,38.22465 c 0,2.21035 0.67373,4.04307 2.07618,5.4723 1.4015,1.40173 3.39615,2.12904 5.95688,2.12904 3.53149,0 6.38879,-1.32019 8.57236,-3.96246 2.18357,-2.61433 3.28874,-5.98461 3.28874,-10.1083 v -3.07349 l -11.37561,1.59045 c -5.68826,0.94397 -8.51855,3.58531 -8.51855,7.95246 z"
       style="fill:#3c2b99;fill-rule:evenodd;stroke-width:2.30967665"
       id="path12" />
    <path
       inkscape:connector-curvature="0"
       d="m 741.59931,22.83225 c 0,8.84167 -1.48235,16.68649 -4.39393,23.50605 -2.91089,6.82023 -7.06229,12.07684 -12.427,15.79657 -5.39102,3.69271 -11.45622,5.55292 -18.24967,5.55292 -5.22889,0 -9.67662,-0.94327 -13.39705,-2.8841 -3.69294,-1.91401 -6.63132,-4.39392 -8.7881,-7.46694 h -0.32336 v 8.38318 H 650.37885 V -53.993592 h 33.64135 v 49.8158051 h 0.32336 c 2.61525,-3.989276 6.20057,-7.1436051 10.70211,-9.4615931 4.50136,-2.318229 9.46161,-3.477913 14.88012,-3.477913 10.21662,0 18.03372,3.397074 23.47856,10.1898291 5.47232,6.79344102 8.19496,16.712833 8.19496,29.7597139 z m -34.12664,1.02459 c 0,-5.418049 -1.0516,-9.488618 -3.12682,-12.238294 -2.07596,-2.7226519 -5.06836,-4.0973789 -8.95002,-4.0973789 -3.42317,0 -6.28047,1.428539 -8.57213,4.2863139 -2.29119,2.88409 -3.45018,6.603822 -3.45018,11.186679 v 4.90621 c 0,4.63599 1.05135,8.30261 3.0998,11.05229 2.04914,2.72216 4.79812,4.09689 8.27581,4.09689 4.07057,0 7.19741,-1.67129 9.40777,-5.01385 2.21059,-3.34256 3.31577,-8.05985 3.31577,-14.17886 z"
       style="fill:#3c2b99;fill-rule:evenodd;stroke-width:2.30967665"
       id="path14" />
    <path
       inkscape:connector-curvature="0"
       d="m 789.85076,-36.956733 c 0,4.744308 -1.72509,8.599167 -5.1753,11.536847 -3.45087,2.965615 -7.97924,4.420951 -13.613,4.420951 -5.47232,0 -9.97387,-1.509152 -13.47833,-4.582172 -3.50471,-3.045999 -5.22959,-6.84727 -5.22959,-11.375626 0,-4.609879 1.69808,-8.383203 5.06814,-11.241185 3.39636,-2.884104 7.95175,-4.312632 13.63978,-4.312632 5.63376,0 10.16213,1.428528 13.613,4.312632 3.45021,2.857982 5.1753,6.631306 5.1753,11.241185 z M 754.24154,65.71993 v -80.868689 h 33.64138 V 65.71993 Z"
       style="fill:#3c2b99;fill-rule:evenodd;stroke-width:2.30967665"
       id="path16" />
    <path
       inkscape:connector-curvature="0"
       d="M 804.08415,65.71993 V -53.993592 h 33.64136 V 65.71993 Z"
       style="fill:#3c2b99;fill-rule:evenodd;stroke-width:2.30967665"
       id="path18" />
    <g
       transform="matrix(2.3096766,0,0,2.3096766,-186.69835,-756.27047)"
       id="g20">
      <path
         inkscape:connector-curvature="0"
         d="m 118.3885,295.2323 c 17.9046,0 32.4195,14.9875 32.4195,33.4754 0,18.4876 -14.5149,33.4751 -32.4195,33.4751 -15.5245,0 -28.4986,-11.2689 -31.6739,-26.3161 2.9709,9.6519 11.6314,16.6371 21.8537,16.6371 12.6767,0 22.9536,-10.7414 22.9536,-23.9907 0,-13.2493 -10.2769,-23.9907 -22.9536,-23.9907 -9.8946,0 -18.3267,6.544 -21.5516,15.7162 3.633,-14.3869 16.301,-25.0063 31.3718,-25.0063 z"
         style="fill:#3c2b99;fill-rule:evenodd"
         id="path22" />
      <path
         inkscape:connector-curvature="0"
         d="m 115.0144,349.5369 c -7.9608,0 -14.4141,-6.2766 -14.4141,-14.0195 0,-7.7428 6.4533,-14.0194 14.4141,-14.0194 7.9608,0 14.4141,6.2766 14.4141,14.0194 0,7.7429 -6.4533,14.0195 -14.4141,14.0195 z"
         style="fill:#3c2b99;fill-rule:evenodd"
         id="path24" />
    </g>
  </g>
</svg>
