<?xml version="1.0" encoding="iso-8859-1"?>
<!-- Generator: Adobe Illustrator 17.0.0, SVG Export Plug-In . SVG Version: 6.00 Build 0)  -->
<!DOCTYPE svg PUBLIC "-//W3C//DTD SVG 1.1//EN" "http://www.w3.org/Graphics/SVG/1.1/DTD/svg11.dtd">
<svg version="1.1" id="Layer_1" xmlns="http://www.w3.org/2000/svg" xmlns:xlink="http://www.w3.org/1999/xlink" x="0px" y="0px"
	 width="50px" height="40px" viewBox="0 0 50 40" style="enable-background:new 0 0 50 40;" xml:space="preserve">
<g id="sbqtzx.tif">
	<g>
		<path style="fill:#414042;" d="M42.41,6.65c0.17,0.18,0.33,0.35,0.5,0.53c0.08,0.09,0.16,0.17,0.24,0.26
			c0.18,0.22,0.36,0.45,0.54,0.67c0.07,0.09,0.14,0.18,0.21,0.27c0.18,0.25,0.35,0.51,0.53,0.76c0.03,0.1,0.08,0.19,0.17,0.25
			c0.15,0.25,0.29,0.51,0.44,0.76c0.02,0.1,0.07,0.19,0.15,0.26c0.15,0.31,0.29,0.62,0.44,0.93c0.02,0.14,0.07,0.26,0.16,0.37
			c0.1,0.27,0.19,0.55,0.29,0.82c0.04,0.12,0.08,0.23,0.12,0.35c0.08,0.32,0.16,0.63,0.24,0.95c0.03,0.14,0.07,0.27,0.1,0.41
			c0.05,0.34,0.09,0.67,0.14,1.01c-0.01,0.18,0,0.35,0.07,0.51c0,0.4,0.01,0.79,0.01,1.19c0,0.14,0,0.28,0,0.43
			c-0.06,0.48-0.11,0.96-0.17,1.44c-0.03,0.17-0.05,0.34-0.08,0.51c-0.15,0.57-0.31,1.13-0.46,1.7c-0.11,0.21-0.2,0.44-0.24,0.67
			c-0.44,0.94-0.91,1.86-1.47,2.73c-0.53,0.67-1.07,1.35-1.6,2.02c-0.28,0.28-0.56,0.55-0.84,0.83c-0.71,0.56-1.41,1.13-2.12,1.69
			c-0.95,0.65-1.96,1.19-2.97,1.74c-0.27,0.07-0.52,0.19-0.76,0.34c-0.68,0.26-1.36,0.51-2.04,0.77c-0.21,0.01-0.41,0.08-0.6,0.17
			c-0.57,0.14-1.13,0.29-1.7,0.43c-0.19,0.03-0.38,0.07-0.58,0.1c-0.49,0.08-0.98,0.16-1.46,0.25c-0.17,0.02-0.34,0.05-0.51,0.07
			c-0.45,0.03-0.91,0.07-1.36,0.1c-0.14,0.01-0.29,0.01-0.43,0.02c-0.06,0-0.11-0.01-0.17-0.01c-0.53-0.07-0.84,0.13-1.12,0.62
			c-0.82,1.43-2.09,2.42-3.47,3.26c-0.34,0.2-0.68,0.4-1.02,0.6c-0.3,0.1-0.58,0.24-0.85,0.4c-0.68,0.27-1.36,0.53-2.04,0.8
			c-0.22,0.06-0.44,0.12-0.66,0.19c-0.54,0.14-1.09,0.28-1.63,0.42c-0.2,0.04-0.39,0.08-0.59,0.11c-0.48,0.07-0.97,0.14-1.45,0.21
			c-0.14,0-0.28,0.01-0.43,0.01c-0.35-0.02-0.71,0.05-1.06-0.03c-0.09-0.09-0.19-0.17-0.28-0.26c-0.12-0.36-0.01-0.64,0.26-0.91
			c0.59-0.58,1.13-1.22,1.56-1.94c0.23-0.32,0.42-0.66,0.54-1.03c0.3-0.56,0.48-1.15,0.52-1.78c0.05-0.17,0.08-0.34,0.04-0.51
			c0.04-0.38,0-0.74-0.12-1.1c0.02-0.13-0.03-0.24-0.1-0.34c-0.08-0.37-0.24-0.7-0.47-0.99c-0.03-0.04-0.06-0.08-0.09-0.12
			c-0.17-0.32-0.41-0.58-0.69-0.8c-0.09-0.06-0.18-0.13-0.27-0.19c-0.25-0.16-0.5-0.32-0.75-0.48c-0.09-0.07-0.18-0.13-0.27-0.2
			c-0.25-0.18-0.5-0.37-0.76-0.55c-0.06-0.05-0.12-0.1-0.18-0.15c-0.25-0.21-0.5-0.42-0.75-0.64c-0.06-0.05-0.11-0.1-0.17-0.16
			c-0.2-0.19-0.4-0.38-0.59-0.58c-0.09-0.09-0.17-0.18-0.26-0.27c-0.17-0.19-0.34-0.38-0.52-0.58c-0.08-0.09-0.15-0.18-0.23-0.26
			c-0.18-0.28-0.38-0.54-0.61-0.78c-0.02-0.11-0.08-0.19-0.17-0.25C8.35,24.45,8.21,24.23,8.06,24c-0.03-0.1-0.08-0.19-0.17-0.26
			c-0.15-0.28-0.3-0.56-0.45-0.85c-0.05-0.09-0.1-0.17-0.15-0.26c-0.14-0.31-0.28-0.63-0.42-0.94c0-0.1-0.03-0.18-0.1-0.25
			c-0.1-0.31-0.21-0.63-0.31-0.94c-0.01-0.12-0.01-0.24-0.1-0.33c-0.07-0.34-0.15-0.69-0.22-1.03c-0.02-0.14-0.04-0.28-0.07-0.41
			c-0.05-0.37-0.09-0.73-0.14-1.1c-0.01-0.14-0.01-0.28-0.02-0.43c0-0.42,0.01-0.85,0.01-1.27c0.02-0.17,0.04-0.34,0.05-0.51
			c0.07-0.48,0.14-0.96,0.21-1.44c0.1-0.19,0.11-0.4,0.15-0.6c0.21-0.62,0.42-1.25,0.63-1.87c0.11-0.25,0.23-0.5,0.34-0.76
			C8.3,8.9,9.55,7.26,11.12,5.86c1.12-1,2.37-1.82,3.66-2.6c0.31-0.15,0.61-0.3,0.92-0.46c0.71-0.31,1.42-0.61,2.14-0.92
			c0.23-0.08,0.45-0.16,0.68-0.24c0.59-0.17,1.19-0.35,1.78-0.52c0.21,0.01,0.4-0.06,0.59-0.12c0.51-0.1,1.02-0.2,1.54-0.3
			c0.18,0.02,0.35,0.01,0.51-0.07c0.45-0.05,0.9-0.1,1.36-0.15c0.17,0.04,0.34,0,0.52-0.03c0.42-0.01,0.85-0.02,1.27-0.04
			c0.14,0,0.29,0,0.43,0.01c0.42,0.01,0.85,0.02,1.27,0.02c0.14,0.01,0.28,0.02,0.42,0.03c0.37,0.04,0.74,0.08,1.1,0.11
			c0.14,0.02,0.29,0.03,0.43,0.05c0.36,0.09,0.73,0.15,1.11,0.17c0.1,0.08,0.22,0.09,0.34,0.08c0.34,0.07,0.67,0.15,1.01,0.22
			c0.15,0.04,0.29,0.08,0.44,0.11c0.31,0.08,0.62,0.17,0.93,0.25c0.11,0.05,0.21,0.12,0.34,0.1c0.31,0.11,0.62,0.21,0.93,0.32
			c0.11,0.04,0.22,0.08,0.33,0.12c0.27,0.15,0.55,0.26,0.85,0.34c0.04,0.08,0.13,0.08,0.2,0.09c0.3,0.14,0.59,0.28,0.89,0.41
			c0.1,0.1,0.22,0.15,0.35,0.18c0.25,0.14,0.5,0.27,0.76,0.41c0.12,0.07,0.24,0.15,0.36,0.22c0.25,0.15,0.51,0.31,0.76,0.46
			c0.06,0.09,0.15,0.14,0.25,0.18c0.23,0.16,0.46,0.33,0.69,0.49c0.11,0.09,0.23,0.17,0.34,0.26c0.22,0.18,0.45,0.36,0.67,0.54
			c0.09,0.08,0.17,0.15,0.26,0.23c0.18,0.16,0.35,0.33,0.53,0.49C42.19,6.43,42.3,6.54,42.41,6.65z M33.38,20.1
			c-0.1,0.19-0.13,0.39-0.15,0.6c-0.07,0.26-0.15,0.52-0.2,0.78c-0.04,0.22-0.01,0.43,0.25,0.51c0.13,0.1,0.28,0.15,0.44,0.18
			c0.3,0.15,0.61,0.23,0.94,0.27c0.13,0.09,0.28,0.07,0.42,0.08c0.4,0.11,0.8,0.11,1.2,0.07c0.14,0.04,0.28,0.02,0.42-0.01
			c0.56-0.01,1.1-0.1,1.62-0.33c1.11-0.36,1.87-1.08,2.19-2.22c0.15-0.44,0.14-0.9,0.09-1.36c0.02-0.13-0.03-0.23-0.08-0.34
			c-0.05-0.35-0.19-0.66-0.41-0.94c-0.06-0.14-0.14-0.25-0.26-0.34c-0.15-0.22-0.36-0.38-0.59-0.51c-0.09-0.11-0.21-0.18-0.34-0.24
			c-0.26-0.18-0.54-0.31-0.84-0.41c-0.06-0.02-0.13-0.05-0.19-0.07c-0.34-0.13-0.67-0.27-1.01-0.4c-0.04-0.08-0.13-0.09-0.2-0.1
			c-0.23-0.19-0.56-0.28-0.57-0.65c0.01-0.44,0.38-0.52,0.69-0.66c0.4-0.04,0.79-0.03,1.19,0.01c0.11,0.07,0.23,0.06,0.34,0.06
			c0.28,0.1,0.55,0.21,0.83,0.31c0.22,0.08,0.46,0.04,0.54-0.19c0.21-0.65,0.48-1.29,0.49-1.99c-0.02-0.1-0.07-0.17-0.16-0.2
			c-0.33-0.21-0.71-0.3-1.09-0.38c-0.14-0.03-0.29-0.06-0.43-0.09c-0.37-0.04-0.73-0.13-1.1-0.08c-0.14,0-0.29,0-0.43,0
			c-0.59,0.03-1.17,0.11-1.7,0.39c-0.96,0.35-1.63,0.98-1.94,1.97c-0.21,0.43-0.21,0.89-0.16,1.36c-0.03,0.15,0.05,0.29,0.09,0.43
			c0.07,0.37,0.22,0.7,0.48,0.97c0.02,0.1,0.09,0.18,0.18,0.23c0.16,0.21,0.35,0.38,0.58,0.51c0.1,0.12,0.22,0.19,0.36,0.24
			c0.28,0.2,0.59,0.36,0.93,0.44c0.06,0.09,0.15,0.09,0.24,0.11c0.28,0.11,0.56,0.22,0.84,0.33c0.12,0.06,0.23,0.12,0.35,0.18
			c0.19,0.19,0.42,0.35,0.45,0.65c-0.03,0.51-0.4,0.67-0.82,0.78c-0.41,0.06-0.82-0.01-1.23-0.01c-0.11-0.03-0.23-0.05-0.34-0.08
			c-0.31-0.09-0.62-0.18-0.93-0.27c-0.1-0.09-0.21-0.14-0.34-0.16C33.5,19.41,33.42,19.73,33.38,20.1z M17.84,14.22
			c0.66,0.32,0.83,0.25,1.01-0.45c0.07-0.24,0.12-0.49,0.18-0.74c0.09-0.19,0.15-0.39,0.16-0.6c0-0.45-0.12-0.55-0.83-0.7
			c-0.07-0.08-0.16-0.07-0.26-0.07c-0.35-0.15-0.73-0.18-1.1-0.18c-0.14-0.07-0.29-0.06-0.43-0.04c-0.49-0.03-0.98-0.02-1.45,0.14
			c-0.21,0-0.41,0.05-0.6,0.15c-1.12,0.38-1.91,1.08-2.25,2.24c-0.06,0.2-0.12,0.39-0.1,0.61c-0.05,0.38-0.02,0.75,0.13,1.11
			c0.01,0.16,0.07,0.31,0.18,0.44c0.08,0.26,0.24,0.47,0.44,0.65c0.08,0.14,0.2,0.24,0.34,0.33c0.19,0.19,0.4,0.36,0.65,0.45
			c0.13,0.12,0.28,0.2,0.45,0.24c0.27,0.16,0.55,0.28,0.85,0.34c0.06,0.08,0.15,0.1,0.25,0.1c0.25,0.11,0.5,0.23,0.75,0.34
			c0.12,0.11,0.24,0.22,0.36,0.34c0.19,0.57,0.02,0.92-0.56,1.07c-0.26,0.06-0.53,0.07-0.79,0.1c-0.14-0.07-0.28-0.06-0.43-0.05
			c-0.34-0.07-0.67-0.14-1.01-0.21c-0.12-0.04-0.23-0.09-0.35-0.13c-0.71-0.35-0.86-0.28-1.05,0.48c-0.06,0.23-0.1,0.47-0.15,0.7
			c-0.09,0.19-0.13,0.39-0.15,0.6c-0.12,0.62,0.42,0.57,0.74,0.73c0.12,0.04,0.23,0.07,0.35,0.11c0.33,0.12,0.66,0.2,1.01,0.21
			c0.14,0.08,0.28,0.06,0.43,0.05c0.42,0.05,0.85,0.05,1.27-0.01c0.18,0.02,0.35,0,0.51-0.07c0.32,0,0.61-0.1,0.9-0.19
			c1.41-0.47,2.33-1.67,2.34-3.04c0.04-0.14,0.03-0.28-0.02-0.42c0.03-0.37-0.08-0.7-0.25-1.02c-0.01-0.11-0.06-0.19-0.14-0.26
			c-0.13-0.31-0.34-0.56-0.62-0.76c-0.09-0.11-0.2-0.2-0.33-0.26c-0.22-0.2-0.48-0.35-0.76-0.44c-0.06-0.03-0.13-0.06-0.19-0.09
			c-0.32-0.18-0.65-0.31-1.01-0.4c-0.1-0.09-0.22-0.13-0.34-0.16c-0.22-0.12-0.44-0.24-0.66-0.36c-0.06-0.08-0.12-0.16-0.18-0.25
			c0.01-0.56,0.06-0.6,0.84-0.86c0.14,0,0.28,0,0.43,0c0.36,0.05,0.73,0.1,1.09,0.15C17.61,14.15,17.72,14.19,17.84,14.22z
			 M23.18,20.78c0-0.14,0-0.28,0-0.43c0.05-0.45,0.1-0.9,0.08-1.36c0-0.14,0-0.28,0-0.43c0.03-0.45,0.05-0.9,0.08-1.36
			c0.05-0.12-0.06-0.3,0.15-0.35c0.04,0.36,0.16,0.7,0.28,1.03c-0.01,0.12,0.01,0.24,0.09,0.34c0.04,0.32,0.13,0.63,0.25,0.94
			c-0.01,0.13,0.03,0.24,0.1,0.34c0.09,0.35,0.18,0.7,0.28,1.05c0.03,0.11,0.06,0.21,0.1,0.32c0.08,0.34,0.14,0.69,0.29,1.01
			c-0.01,0.12,0.03,0.21,0.14,0.26c0.42,0.26,0.87,0.11,1.31,0.12c0.87,0.09,0.92,0.05,1.16-0.75c0.05-0.16,0.08-0.32,0.12-0.48
			c0.24-0.61,0.43-1.24,0.6-1.87c0.1-0.19,0.16-0.38,0.17-0.6c0.25-0.61,0.43-1.24,0.59-1.87c0.1-0.09,0.04-0.26,0.17-0.34
			c0.02,0.39,0.04,0.79,0.06,1.18c-0.04,0.12-0.03,0.23,0.02,0.35c0.01,0.42,0.01,0.85,0.02,1.27c0.01,0.14,0.02,0.29,0.03,0.43
			c0.02,0.39,0.03,0.79,0.05,1.18c0,0.14,0.01,0.28,0.01,0.43c0,0.24-0.01,0.48,0.01,0.71c0.01,0.21,0.04,0.43,0.31,0.47
			c0.1,0.1,0.22,0.07,0.34,0.05c0.42,0.03,0.85,0.04,1.27-0.01c0.9,0.1,1.05-0.05,0.93-0.89c0.02-0.4,0.02-0.8-0.06-1.19
			c-0.01-0.14-0.01-0.28-0.02-0.42c0.03-0.4,0.01-0.8-0.07-1.19c-0.01-0.14-0.01-0.28-0.02-0.43c0.03-0.4,0-0.8-0.07-1.19
			c-0.01-0.14-0.01-0.28-0.02-0.43c0.03-0.4-0.01-0.79-0.07-1.19c-0.01-0.14-0.01-0.28-0.02-0.43c0.03-0.4-0.02-0.79-0.07-1.19
			c0-0.14-0.01-0.28-0.01-0.43c0.03-0.4-0.04-0.79-0.07-1.19c0-0.15,0.05-0.3-0.07-0.43c-0.07-0.19-0.22-0.25-0.4-0.25
			c-0.27,0-0.54,0.01-0.8,0.01c-0.14,0-0.29,0-0.43,0c-0.42,0-0.85,0-1.27,0c-0.6-0.03-0.67,0.04-0.84,0.83
			c-0.24,0.61-0.44,1.23-0.6,1.87c-0.1,0.19-0.16,0.38-0.17,0.59c-0.24,0.58-0.4,1.18-0.53,1.79c-0.09,0.19-0.15,0.38-0.15,0.59
			c-0.08,0.06-0.05,0.2-0.17,0.24c0-0.09,0.01-0.18-0.07-0.25c-0.07-0.31-0.14-0.62-0.21-0.93c-0.04-0.14-0.09-0.29-0.13-0.43
			c-0.05-0.35-0.14-0.69-0.28-1.01c0.01-0.1,0.01-0.19-0.08-0.26c-0.03-0.35-0.16-0.68-0.27-1.02c-0.03-0.12-0.07-0.24-0.1-0.35
			c-0.09-0.31-0.19-0.62-0.28-0.94c-0.04-0.15-0.09-0.31-0.13-0.46c-0.26-0.49-0.71-0.23-1.09-0.27c-0.14,0-0.29,0-0.43,0
			c-0.42,0-0.85,0-1.27,0.01c-0.81-0.05-0.94,0.04-0.94,0.71c0,0.07,0.01,0.14,0.01,0.21c-0.08,0.45-0.11,0.9-0.09,1.36
			c-0.01,0.17-0.03,0.34-0.04,0.51c-0.03,0.45-0.06,0.9-0.1,1.35c-0.01,0.14-0.01,0.29-0.02,0.43c-0.03,0.45-0.06,0.9-0.09,1.36
			c0,0.14-0.01,0.28-0.01,0.43c-0.1,0.45-0.09,0.9-0.09,1.36c-0.06,0.17-0.07,0.34-0.05,0.51c-0.03,0.45-0.06,0.9-0.09,1.35
			c0,0.14-0.01,0.29-0.01,0.43c-0.08,0.69,0.05,0.85,0.66,0.81c0.14,0,0.29,0.01,0.43,0.01c0.45,0,0.91,0.09,1.35-0.06
			c0.1,0,0.16-0.06,0.19-0.16C23.22,21.76,23.17,21.26,23.18,20.78z"/>
	</g>
</g>
</svg>
